<?xml version="1.0" standalone="no"?>
<!DOCTYPE svg PUBLIC "-//W3C//DTD SVG 20010904//EN"
 "http://www.w3.org/TR/2001/REC-SVG-20010904/DTD/svg10.dtd">
<svg version="1.0" xmlns="http://www.w3.org/2000/svg"
 width="450.000000pt" height="450.000000pt" viewBox="0 0 450.000000 450.000000"
 preserveAspectRatio="xMidYMid meet">
<metadata>
Created by potrace 1.14, written by Peter Selinger 2001-2017
</metadata>
<g transform="translate(0.000000,450.000000) scale(0.100000,-0.100000)"
fill="#000000" stroke="none">
<path d="M3043 3322 c-25 -2 -43 -8 -43 -15 0 -7 -4 -6 -10 3 -6 10 -10 11
-10 3 0 -7 -5 -13 -11 -13 -5 0 -7 6 -3 13 6 10 4 10 -7 0 -7 -7 -21 -13 -31
-13 -10 0 -18 6 -18 13 0 8 -3 8 -9 -2 -5 -8 -16 -11 -25 -8 -9 4 -16 1 -16
-6 0 -9 -2 -9 -8 -1 -8 14 -562 14 -562 1 0 -5 -5 -5 -12 -1 -19 12 -88 12
-88 0 0 -7 -3 -8 -8 -1 -9 12 -42 16 -42 5 0 -5 6 -11 13 -13 6 -3 2 -6 -10
-6 -14 -1 -21 4 -18 12 4 9 -31 12 -154 12 -92 0 -157 -4 -154 -9 4 -5 0 -6
-8 -1 -19 12 -381 13 -396 2 -8 -5 -13 -6 -13 -1 0 11 -180 11 -197 1 -14 -9
-15 -145 0 -154 5 -3 44 -8 85 -10 42 -2 78 -6 81 -8 5 -6 6 -9 16 -80 3 -22
7 -51 9 -65 5 -28 24 -242 33 -359 11 -159 5 -534 -12 -816 -12 -203 -15 -245
-20 -295 -3 -30 -10 -56 -15 -58 -5 -2 -6 -10 -3 -19 5 -12 3 -14 -7 -8 -7 4
-31 10 -52 12 -30 4 -43 1 -54 -13 -8 -12 -13 -13 -12 -5 4 19 -15 24 -35 8
-13 -9 -18 -27 -19 -64 0 -69 9 -93 35 -94 143 -5 387 -2 387 4 0 5 5 5 11 2
13 -9 805 -9 819 0 5 3 10 3 10 -2 0 -4 96 -8 212 -8 117 0 286 -3 376 -7 139
-5 164 -4 169 8 3 8 0 56 -7 107 -6 51 -14 108 -16 127 -4 31 -10 119 -13 205
-1 23 -3 27 -11 15 -6 -10 -10 -11 -10 -3 0 7 -3 12 -7 12 -5 -1 -12 0 -18 1
-22 5 -220 -2 -227 -8 -4 -4 -9 -50 -13 -102 -6 -96 -17 -125 -43 -115 -9 3
-12 0 -9 -9 5 -12 1 -13 -17 -6 -18 6 -106 6 -241 -1 -5 0 -31 2 -57 4 -27 2
-48 -1 -48 -6 0 -5 -10 -7 -22 -4 -13 3 -34 8 -46 11 -19 4 -22 3 -12 -9 9
-11 7 -12 -9 -8 -12 3 -19 8 -17 12 6 9 -107 6 -123 -4 -10 -6 -12 -4 -6 6 8
12 6 12 -8 0 -9 -7 -17 -10 -17 -5 0 5 -74 8 -164 7 -175 -2 -202 1 -210 22
-2 7 -8 60 -11 117 -4 56 -9 114 -11 128 -3 14 -7 115 -10 225 -3 110 -7 205
-9 211 -4 15 123 23 345 23 96 0 180 0 185 1 6 1 37 1 70 -1 33 -1 69 -2 80
-1 11 0 72 -2 136 -5 l115 -5 3 -46 c1 -26 7 -51 12 -57 10 -10 254 -14 263
-4 3 2 6 104 8 226 l3 223 -30 6 c-33 7 -232 7 -244 0 -4 -3 -8 -24 -10 -47
-1 -23 -4 -46 -7 -50 -2 -4 2 -10 8 -12 8 -3 4 -6 -7 -7 -11 -1 -33 -4 -50 -6
-16 -1 -190 -6 -385 -9 -404 -6 -359 -6 -430 -3 l-55 3 0 190 c0 105 3 228 8
275 4 47 9 109 11 139 3 36 10 57 21 63 15 9 993 13 1002 5 4 -4 9 -63 14
-174 2 -23 7 -44 13 -46 20 -7 266 -5 271 2 2 4 6 60 9 123 3 63 7 121 10 129
5 15 16 112 19 164 2 29 1 30 -46 33 -33 2 -47 0 -42 -8 3 -5 11 -8 16 -5 5 4
9 1 9 -6 0 -8 5 -7 18 2 15 13 16 12 3 -3 -11 -14 -17 -15 -35 -6 -11 6 -23
14 -26 17 -3 3 -24 5 -47 3z m139 -24 c-7 -7 -12 -8 -12 -2 0 6 3 14 7 17 3 4
9 5 12 2 2 -3 -1 -11 -7 -17z m-438 -7 c-8 -9 -44 -11 -44 -3 0 4 11 8 25 8
13 0 22 -2 19 -5z m-826 -8 c-10 -2 -26 -2 -35 0 -10 3 -2 5 17 5 19 0 27 -2
18 -5z m90 0 c-10 -2 -26 -2 -35 0 -10 3 -2 5 17 5 19 0 27 -2 18 -5z m49 1
c-3 -3 -12 -4 -19 -1 -8 3 -5 6 6 6 11 1 17 -2 13 -5z m206 -1 c-7 -2 -21 -2
-30 0 -10 3 -4 5 12 5 17 0 24 -2 18 -5z m74 1 c-3 -3 -12 -4 -19 -1 -8 3 -5
6 6 6 11 1 17 -2 13 -5z m151 -1 c-10 -2 -26 -2 -35 0 -10 3 -2 5 17 5 19 0
27 -2 18 -5z m-1151 -139 c-3 -3 -12 -4 -19 -1 -8 3 -5 6 6 6 11 1 17 -2 13
-5z m-102 -1734 c-3 -5 -10 -10 -16 -10 -5 0 -9 5 -9 10 0 6 7 10 16 10 8 0
12 -4 9 -10z m268 -127 c-7 -2 -19 -2 -25 0 -7 3 -2 5 12 5 14 0 19 -2 13 -5z
m840 0 c-7 -2 -19 -2 -25 0 -7 3 -2 5 12 5 14 0 19 -2 13 -5z"/>
</g>
</svg>
